<svg xmlns="http://www.w3.org/2000/svg" xmlns:xlink="http://www.w3.org/1999/xlink" width="40" zoomAndPan="magnify" viewBox="0 0 30 30.000001" height="40" preserveAspectRatio="xMidYMid meet" version="1.0"><defs><clipPath id="a3ab914d2b"><path d="M 7.667969 7.183594 L 22.183594 7.183594 L 22.183594 21.703125 L 7.667969 21.703125 Z M 7.667969 7.183594 " clip-rule="nonzero"/></clipPath></defs><g clip-path="url(#a3ab914d2b)"><path fill="#545454" d="M 14.929688 7.183594 C 14.453125 7.1875 13.980469 7.230469 13.515625 7.324219 C 13.046875 7.417969 12.59375 7.554688 12.152344 7.738281 C 11.710938 7.921875 11.292969 8.144531 10.898438 8.410156 C 10.503906 8.675781 10.136719 8.976562 9.796875 9.3125 C 9.460938 9.648438 9.160156 10.015625 8.894531 10.414062 C 8.632812 10.808594 8.410156 11.226562 8.226562 11.667969 C 8.042969 12.109375 7.90625 12.5625 7.8125 13.03125 C 7.71875 13.496094 7.675781 13.96875 7.675781 14.445312 C 7.675781 14.921875 7.722656 15.394531 7.8125 15.863281 C 7.90625 16.328125 8.046875 16.785156 8.226562 17.222656 C 8.410156 17.664062 8.632812 18.082031 8.898438 18.480469 C 9.164062 18.875 9.464844 19.242188 9.800781 19.578125 C 10.140625 19.914062 10.503906 20.214844 10.902344 20.480469 C 11.296875 20.746094 11.71875 20.96875 12.15625 21.152344 C 12.597656 21.332031 13.050781 21.472656 13.519531 21.5625 C 13.988281 21.65625 14.457031 21.703125 14.933594 21.703125 C 15.410156 21.703125 15.882812 21.65625 16.351562 21.5625 C 16.820312 21.46875 17.273438 21.332031 17.710938 21.148438 C 18.152344 20.96875 18.570312 20.742188 18.96875 20.480469 C 19.363281 20.214844 19.730469 19.914062 20.066406 19.574219 C 20.402344 19.238281 20.703125 18.871094 20.96875 18.476562 C 21.234375 18.078125 21.457031 17.660156 21.640625 17.21875 C 21.824219 16.78125 21.960938 16.328125 22.054688 15.859375 C 22.144531 15.390625 22.191406 14.917969 22.191406 14.441406 C 22.191406 13.964844 22.144531 13.496094 22.050781 13.027344 C 21.957031 12.558594 21.816406 12.105469 21.636719 11.667969 C 21.453125 11.226562 21.230469 10.808594 20.964844 10.414062 C 20.699219 10.015625 20.398438 9.652344 20.0625 9.3125 C 19.722656 8.976562 19.355469 8.675781 18.960938 8.410156 C 18.566406 8.148438 18.148438 7.921875 17.707031 7.742188 C 17.265625 7.558594 16.8125 7.421875 16.347656 7.328125 C 15.878906 7.234375 15.40625 7.1875 14.929688 7.183594 Z M 16.933594 20.566406 C 16.621094 20.632812 16.503906 20.4375 16.503906 20.269531 C 16.503906 20.058594 16.511719 19.382812 16.511719 18.539062 C 16.511719 17.953125 16.316406 17.570312 16.085938 17.375 C 17.488281 17.21875 18.960938 16.6875 18.960938 14.269531 C 18.96875 13.617188 18.753906 13.054688 18.3125 12.578125 C 18.375 12.421875 18.597656 11.777344 18.25 10.910156 C 18.25 10.910156 17.722656 10.738281 16.519531 11.550781 C 15.46875 11.269531 14.421875 11.269531 13.375 11.550781 C 12.171875 10.746094 11.640625 10.910156 11.640625 10.910156 C 11.300781 11.773438 11.515625 12.417969 11.582031 12.578125 C 11.144531 13.058594 10.929688 13.621094 10.9375 14.269531 C 10.9375 16.675781 12.402344 17.21875 13.800781 17.375 C 13.621094 17.535156 13.453125 17.808594 13.398438 18.21875 C 13.035156 18.382812 12.132812 18.648438 11.566406 17.699219 C 11.449219 17.511719 11.09375 17.046875 10.601562 17.054688 C 10.070312 17.0625 10.386719 17.351562 10.605469 17.46875 C 10.875 17.625 11.179688 18.179688 11.253906 18.359375 C 11.378906 18.714844 11.785156 19.390625 13.363281 19.101562 C 13.363281 19.628906 13.375 20.125 13.375 20.269531 C 13.375 20.4375 13.257812 20.621094 12.941406 20.566406 C 12.472656 20.410156 12.03125 20.199219 11.609375 19.9375 C 11.191406 19.675781 10.808594 19.367188 10.460938 19.015625 C 10.113281 18.664062 9.8125 18.277344 9.558594 17.855469 C 9.304688 17.429688 9.101562 16.984375 8.949219 16.511719 C 8.800781 16.042969 8.707031 15.558594 8.671875 15.066406 C 8.636719 14.574219 8.65625 14.082031 8.738281 13.59375 C 8.816406 13.109375 8.953125 12.636719 9.140625 12.179688 C 9.332031 11.722656 9.574219 11.296875 9.867188 10.898438 C 10.15625 10.5 10.492188 10.140625 10.867188 9.820312 C 11.246094 9.5 11.652344 9.226562 12.09375 9.003906 C 12.535156 8.78125 12.996094 8.609375 13.476562 8.496094 C 13.957031 8.378906 14.445312 8.324219 14.9375 8.324219 C 15.433594 8.324219 15.921875 8.378906 16.402344 8.496094 C 16.882812 8.609375 17.34375 8.78125 17.785156 9.003906 C 18.222656 9.226562 18.632812 9.5 19.007812 9.820312 C 19.386719 10.140625 19.71875 10.5 20.011719 10.898438 C 20.304688 11.296875 20.542969 11.722656 20.734375 12.179688 C 20.925781 12.636719 21.0625 13.109375 21.140625 13.59375 C 21.222656 14.082031 21.242188 14.574219 21.207031 15.066406 C 21.171875 15.558594 21.078125 16.042969 20.925781 16.511719 C 20.777344 16.984375 20.574219 17.429688 20.320312 17.855469 C 20.0625 18.277344 19.761719 18.664062 19.417969 19.015625 C 19.070312 19.367188 18.6875 19.675781 18.265625 19.9375 C 17.847656 20.199219 17.402344 20.410156 16.933594 20.566406 Z M 16.933594 20.566406 " fill-opacity="1" fill-rule="evenodd"/></g></svg>