<svg xmlns="http://www.w3.org/2000/svg" xmlns:xlink="http://www.w3.org/1999/xlink" width="500" zoomAndPan="magnify" viewBox="0 0 375 374.999991" height="500" preserveAspectRatio="xMidYMid meet" version="1.0"><defs><clipPath id="cd259f2909"><path d="M 48.722656 26.253906 L 332.625 26.253906 L 332.625 348.664062 L 48.722656 348.664062 Z M 48.722656 26.253906 " clip-rule="nonzero"/></clipPath><clipPath id="6621325265"><path d="M 215.257812 117 L 332.625 117 L 332.625 326 L 215.257812 326 Z M 215.257812 117 " clip-rule="nonzero"/></clipPath><clipPath id="416f5dbb9a"><path d="M 42.375 55 L 223 55 L 223 292 L 42.375 292 Z M 42.375 55 " clip-rule="nonzero"/></clipPath><clipPath id="e969347f8f"><path d="M 92 26.253906 L 183 26.253906 L 183 47 L 92 47 Z M 92 26.253906 " clip-rule="nonzero"/></clipPath></defs><g clip-path="url(#cd259f2909)"><path fill="#2a6a82" d="M 332.621094 348.664062 L 144.988281 348.664062 L 48.910156 291.65625 L 178.972656 26.347656 L 332.621094 117.273438 L 332.621094 348.664062 " fill-opacity="1" fill-rule="nonzero"/></g><g clip-path="url(#6621325265)"><path fill="#22566b" d="M 332.621094 325.625 L 215.511719 258.324219 L 286.039062 117.199219 L 332.621094 145.101562 L 332.621094 325.625 " fill-opacity="1" fill-rule="nonzero"/></g><g clip-path="url(#416f5dbb9a)"><path fill="#f79745" d="M 222.511719 285.144531 C 222.511719 288.742188 219.59375 291.65625 216 291.65625 L 48.910156 291.65625 C 45.3125 291.65625 42.398438 288.742188 42.398438 285.144531 L 42.398438 61.632812 C 42.398438 58.035156 45.3125 55.121094 48.910156 55.121094 L 216 55.121094 C 219.59375 55.121094 222.511719 58.035156 222.511719 61.632812 L 222.511719 285.144531 " fill-opacity="1" fill-rule="nonzero"/></g><path fill="#cc7c38" d="M 216 291.65625 L 48.910156 291.65625 C 45.3125 291.65625 202.4375 282.433594 202.4375 282.433594 C 206.035156 282.433594 208.949219 279.515625 208.949219 275.921875 C 208.949219 275.921875 209.46875 267.550781 210.308594 254.121094 C 213.539062 256.824219 215.511719 258.324219 215.511719 258.324219 L 215.511719 170.910156 C 218.917969 116.617188 222.398438 61.589844 222.507812 61.589844 C 222.511719 61.589844 222.511719 61.601562 222.511719 61.628906 C 222.511719 61.628906 222.511719 61.628906 222.511719 61.632812 L 222.511719 285.144531 C 222.511719 288.742188 219.59375 291.65625 216 291.65625 " fill-opacity="1" fill-rule="nonzero"/><path fill="#ffffff" d="M 174.367188 273.886719 L 54.335938 273.886719 L 54.335938 70.445312 L 212.746094 70.445312 L 212.746094 233.738281 L 174.367188 273.886719 " fill-opacity="1" fill-rule="nonzero"/><path fill="#bdeafb" d="M 174.367188 273.886719 L 174.367188 233.738281 L 212.746094 233.738281 L 174.367188 273.886719 " fill-opacity="1" fill-rule="nonzero"/><path fill="#bbbaba" d="M 177.601562 80.613281 C 177.601562 82.429688 176.132812 83.898438 174.316406 83.898438 L 101.460938 83.898438 C 99.644531 83.898438 98.175781 82.429688 98.175781 80.613281 L 98.175781 49.914062 C 98.175781 48.097656 99.644531 46.625 101.460938 46.625 L 174.316406 46.625 C 176.132812 46.625 177.601562 48.097656 177.601562 49.914062 L 177.601562 80.613281 " fill-opacity="1" fill-rule="nonzero"/><path fill="#d3d2d2" d="M 174.367188 77.84375 C 174.367188 79.511719 173.015625 80.863281 171.347656 80.863281 L 104.429688 80.863281 C 102.761719 80.863281 101.410156 79.511719 101.410156 77.84375 L 101.410156 49.644531 C 101.410156 47.976562 102.761719 46.625 104.429688 46.625 L 171.347656 46.625 C 173.015625 46.625 174.367188 47.976562 174.367188 49.644531 L 174.367188 77.84375 " fill-opacity="1" fill-rule="nonzero"/><g clip-path="url(#e969347f8f)"><path fill="#918f8f" d="M 177.601562 43.339844 C 177.601562 45.152344 176.132812 46.625 174.316406 46.625 L 101.460938 46.625 C 99.644531 46.625 98.175781 45.152344 98.175781 43.339844 L 92.691406 29.632812 C 92.691406 27.816406 94.164062 26.347656 95.980469 26.347656 L 178.972656 26.347656 C 180.785156 26.347656 182.257812 27.816406 182.257812 29.632812 L 177.601562 43.339844 " fill-opacity="1" fill-rule="nonzero"/></g><path fill="#a9a8a8" d="M 172.847656 43.828125 C 172.847656 45.375 171.546875 46.625 169.949219 46.625 L 105.730469 46.625 C 104.132812 46.625 102.835938 45.375 102.835938 43.828125 L 98.003906 32.167969 C 98.003906 30.621094 99.300781 29.371094 100.902344 29.371094 L 174.050781 29.371094 C 175.652344 29.371094 176.949219 30.621094 176.949219 32.167969 L 172.847656 43.828125 " fill-opacity="1" fill-rule="nonzero"/><path fill="#bbbaba" d="M 125.289062 63.742188 C 125.289062 67.753906 122.039062 71.003906 118.03125 71.003906 C 114.023438 71.003906 110.773438 67.753906 110.773438 63.742188 C 110.773438 59.738281 114.023438 56.484375 118.03125 56.484375 C 122.039062 56.484375 125.289062 59.738281 125.289062 63.742188 " fill-opacity="1" fill-rule="nonzero"/><path fill="#bbbaba" d="M 167.195312 63.742188 C 167.195312 67.753906 163.945312 71.003906 159.9375 71.003906 C 155.929688 71.003906 152.679688 67.753906 152.679688 63.742188 C 152.679688 59.738281 155.929688 56.484375 159.9375 56.484375 C 163.945312 56.484375 167.195312 59.738281 167.195312 63.742188 " fill-opacity="1" fill-rule="nonzero"/><path fill="#777475" d="M 163.636719 33.617188 C 163.636719 34.449219 162.960938 35.125 162.128906 35.125 L 115.566406 35.125 C 114.734375 35.125 114.058594 34.449219 114.058594 33.617188 C 114.058594 32.78125 114.734375 32.109375 115.566406 32.109375 L 162.128906 32.109375 C 162.960938 32.109375 163.636719 32.78125 163.636719 33.617188 " fill-opacity="1" fill-rule="nonzero"/><path fill="#777475" d="M 163.636719 39.503906 C 163.636719 40.335938 162.960938 41.011719 162.128906 41.011719 L 115.566406 41.011719 C 114.734375 41.011719 114.058594 40.335938 114.058594 39.503906 C 114.058594 38.671875 114.734375 37.996094 115.566406 37.996094 L 162.128906 37.996094 C 162.960938 37.996094 163.636719 38.671875 163.636719 39.503906 " fill-opacity="1" fill-rule="nonzero"/><path fill="#96d5d3" d="M 148.65625 123.609375 L 72.890625 123.609375 L 72.890625 107.875 L 148.65625 107.875 L 148.65625 123.609375 " fill-opacity="1" fill-rule="nonzero"/><path fill="#bdbcbc" d="M 94.1875 139.070312 L 193.554688 139.070312 L 193.554688 131.207031 L 94.1875 131.207031 Z M 94.1875 139.070312 " fill-opacity="1" fill-rule="nonzero"/><path fill="#bdbcbc" d="M 94.1875 153.992188 L 193.554688 153.992188 L 193.554688 146.125 L 94.1875 146.125 Z M 94.1875 153.992188 " fill-opacity="1" fill-rule="nonzero"/><path fill="#bdbcbc" d="M 94.1875 168.910156 L 193.554688 168.910156 L 193.554688 161.042969 L 94.1875 161.042969 Z M 94.1875 168.910156 " fill-opacity="1" fill-rule="nonzero"/><path fill="#bdbcbc" d="M 94.1875 183.832031 L 193.554688 183.832031 L 193.554688 175.960938 L 94.1875 175.960938 Z M 94.1875 183.832031 " fill-opacity="1" fill-rule="nonzero"/><path fill="#bdbcbc" d="M 94.1875 198.746094 L 193.554688 198.746094 L 193.554688 190.882812 L 94.1875 190.882812 Z M 94.1875 198.746094 " fill-opacity="1" fill-rule="nonzero"/><path fill="#bdbcbc" d="M 94.1875 213.664062 L 193.554688 213.664062 L 193.554688 205.800781 L 94.1875 205.800781 Z M 94.1875 213.664062 " fill-opacity="1" fill-rule="nonzero"/><path fill="#bdbcbc" d="M 94.1875 228.585938 L 193.554688 228.585938 L 193.554688 220.71875 L 94.1875 220.71875 Z M 94.1875 228.585938 " fill-opacity="1" fill-rule="nonzero"/><path fill="#bdbcbc" d="M 94.1875 235.636719 L 94.1875 243.503906 L 133.226562 243.503906 L 133.226562 235.636719 L 94.1875 235.636719 " fill-opacity="1" fill-rule="nonzero"/><path fill="#ffffff" d="M 72.890625 139.070312 L 83.605469 139.070312 L 83.605469 131.207031 L 72.890625 131.207031 Z M 72.890625 139.070312 " fill-opacity="1" fill-rule="nonzero"/><path fill="#918f8f" d="M 83.605469 131.207031 L 83.605469 130.660156 L 72.351562 130.660156 L 72.351562 139.613281 L 84.148438 139.613281 L 84.148438 130.660156 L 83.605469 130.660156 L 83.605469 131.207031 L 83.0625 131.207031 L 83.0625 138.53125 L 73.433594 138.53125 L 73.433594 131.746094 L 83.605469 131.746094 L 83.605469 131.207031 L 83.0625 131.207031 L 83.605469 131.207031 " fill-opacity="1" fill-rule="nonzero"/><path fill="#ffffff" d="M 72.890625 153.992188 L 83.605469 153.992188 L 83.605469 146.125 L 72.890625 146.125 Z M 72.890625 153.992188 " fill-opacity="1" fill-rule="nonzero"/><path fill="#918f8f" d="M 83.605469 146.125 L 83.605469 145.582031 L 72.351562 145.582031 L 72.351562 154.53125 L 84.148438 154.53125 L 84.148438 145.582031 L 83.605469 145.582031 L 83.605469 146.125 L 83.0625 146.125 L 83.0625 153.449219 L 73.433594 153.449219 L 73.433594 146.667969 L 83.605469 146.667969 L 83.605469 146.125 L 83.0625 146.125 L 83.605469 146.125 " fill-opacity="1" fill-rule="nonzero"/><path fill="#ffffff" d="M 72.890625 168.910156 L 83.605469 168.910156 L 83.605469 161.042969 L 72.890625 161.042969 Z M 72.890625 168.910156 " fill-opacity="1" fill-rule="nonzero"/><path fill="#918f8f" d="M 83.605469 161.042969 L 83.605469 160.5 L 72.351562 160.5 L 72.351562 169.453125 L 84.148438 169.453125 L 84.148438 160.5 L 83.605469 160.5 L 83.605469 161.042969 L 83.0625 161.042969 L 83.0625 168.367188 L 73.433594 168.367188 L 73.433594 161.585938 L 83.605469 161.585938 L 83.605469 161.042969 L 83.0625 161.042969 L 83.605469 161.042969 " fill-opacity="1" fill-rule="nonzero"/><path fill="#ffffff" d="M 72.890625 183.832031 L 83.605469 183.832031 L 83.605469 175.960938 L 72.890625 175.960938 Z M 72.890625 183.832031 " fill-opacity="1" fill-rule="nonzero"/><path fill="#918f8f" d="M 83.605469 175.960938 L 83.605469 175.417969 L 72.351562 175.417969 L 72.351562 184.371094 L 84.148438 184.371094 L 84.148438 175.417969 L 83.605469 175.417969 L 83.605469 175.960938 L 83.0625 175.960938 L 83.0625 183.285156 L 73.433594 183.285156 L 73.433594 176.503906 L 83.605469 176.503906 L 83.605469 175.960938 L 83.0625 175.960938 L 83.605469 175.960938 " fill-opacity="1" fill-rule="nonzero"/><path fill="#ffffff" d="M 72.890625 198.746094 L 83.605469 198.746094 L 83.605469 190.882812 L 72.890625 190.882812 Z M 72.890625 198.746094 " fill-opacity="1" fill-rule="nonzero"/><path fill="#918f8f" d="M 83.605469 190.882812 L 83.605469 190.339844 L 72.351562 190.339844 L 72.351562 199.289062 L 84.148438 199.289062 L 84.148438 190.339844 L 83.605469 190.339844 L 83.605469 190.882812 L 83.0625 190.882812 L 83.0625 198.203125 L 73.433594 198.203125 L 73.433594 191.421875 L 83.605469 191.421875 L 83.605469 190.882812 L 83.0625 190.882812 L 83.605469 190.882812 " fill-opacity="1" fill-rule="nonzero"/><path fill="#ffffff" d="M 83.605469 205.800781 L 72.890625 205.800781 L 72.890625 213.664062 L 83.605469 213.664062 L 83.605469 205.800781 " fill-opacity="1" fill-rule="nonzero"/><path fill="#918f8f" d="M 83.605469 205.800781 L 83.605469 205.257812 L 72.347656 205.257812 L 72.347656 214.207031 L 84.148438 214.207031 L 84.148438 205.257812 L 83.605469 205.257812 L 83.605469 205.800781 L 83.0625 205.800781 L 83.0625 213.125 L 73.433594 213.125 L 73.433594 206.339844 L 83.605469 206.339844 L 83.605469 205.800781 L 83.0625 205.800781 L 83.605469 205.800781 " fill-opacity="1" fill-rule="nonzero"/><path fill="#ffffff" d="M 83.605469 220.71875 L 72.890625 220.71875 L 72.890625 228.585938 L 83.605469 228.585938 L 83.605469 220.71875 " fill-opacity="1" fill-rule="nonzero"/><path fill="#918f8f" d="M 83.605469 220.71875 L 83.605469 220.175781 L 72.347656 220.175781 L 72.347656 229.125 L 84.148438 229.125 L 84.148438 220.175781 L 83.605469 220.175781 L 83.605469 220.71875 L 83.0625 220.71875 L 83.0625 228.042969 L 73.433594 228.042969 L 73.433594 221.261719 L 83.605469 221.261719 L 83.605469 220.71875 L 83.0625 220.71875 L 83.605469 220.71875 " fill-opacity="1" fill-rule="nonzero"/><path fill="#ffffff" d="M 83.605469 235.636719 L 72.890625 235.636719 L 72.890625 243.503906 L 83.605469 243.503906 L 83.605469 235.636719 " fill-opacity="1" fill-rule="nonzero"/><path fill="#918f8f" d="M 83.605469 235.636719 L 83.605469 235.09375 L 72.347656 235.09375 L 72.347656 244.046875 L 84.148438 244.046875 L 84.148438 235.09375 L 83.605469 235.09375 L 83.605469 235.636719 L 83.0625 235.636719 L 83.0625 242.960938 L 73.433594 242.960938 L 73.433594 236.179688 L 83.605469 236.179688 L 83.605469 235.636719 L 83.0625 235.636719 L 83.605469 235.636719 " fill-opacity="1" fill-rule="nonzero"/><path fill="#80cc28" d="M 78.152344 138.273438 C 77.804688 138.144531 77.503906 137.902344 77.300781 137.582031 L 73.949219 132.671875 C 73.453125 131.882812 73.6875 130.835938 74.480469 130.34375 C 75.277344 129.847656 76.320312 130.082031 76.816406 130.875 L 78.957031 133.851562 L 85.214844 126.710938 C 85.828125 126.003906 86.894531 125.9375 87.601562 126.550781 C 88.308594 127.160156 88.378906 128.230469 87.765625 128.9375 L 80.007812 137.792969 C 79.65625 138.195312 79.132812 138.414062 78.601562 138.367188 C 78.445312 138.355469 78.292969 138.324219 78.152344 138.273438 " fill-opacity="1" fill-rule="nonzero"/><path fill="#cccbcb" d="M 78.75 138.375 C 79.21875 138.371094 79.667969 138.171875 79.984375 137.820312 C 79.667969 138.171875 79.21875 138.371094 78.75 138.375 M 78.609375 138.367188 C 78.609375 138.367188 78.605469 138.367188 78.601562 138.367188 C 78.445312 138.355469 78.292969 138.324219 78.152344 138.273438 C 77.804688 138.144531 77.503906 137.902344 77.300781 137.582031 L 73.949219 132.671875 C 73.949219 132.671875 73.949219 132.667969 73.945312 132.664062 C 73.949219 132.667969 73.949219 132.671875 73.949219 132.671875 L 77.300781 137.582031 C 77.503906 137.902344 77.804688 138.144531 78.152344 138.273438 C 78.292969 138.324219 78.445312 138.355469 78.601562 138.367188 C 78.605469 138.367188 78.609375 138.367188 78.609375 138.367188 " fill-opacity="1" fill-rule="nonzero"/><path fill="#cccbcb" d="M 84.148438 133.066406 L 87.765625 128.9375 C 87.90625 128.78125 88.007812 128.601562 88.078125 128.414062 C 88.007812 128.601562 87.90625 128.78125 87.765625 128.9375 L 84.148438 133.066406 " fill-opacity="1" fill-rule="nonzero"/><path fill="#65a21f" d="M 78.734375 138.375 C 78.695312 138.375 78.652344 138.371094 78.609375 138.367188 C 78.609375 138.367188 78.605469 138.367188 78.601562 138.367188 C 78.445312 138.355469 78.292969 138.324219 78.152344 138.273438 C 77.804688 138.144531 77.503906 137.902344 77.300781 137.582031 L 73.949219 132.671875 C 73.949219 132.671875 73.949219 132.667969 73.945312 132.664062 C 73.945312 132.664062 73.941406 132.660156 73.941406 132.660156 C 73.59375 132.09375 73.625 131.402344 73.957031 130.871094 L 77.28125 135.738281 C 77.484375 136.058594 77.785156 136.300781 78.132812 136.425781 C 78.277344 136.480469 78.429688 136.511719 78.582031 136.523438 C 78.628906 136.527344 78.667969 136.527344 78.714844 136.527344 C 79.203125 136.527344 79.667969 136.320312 79.992188 135.949219 L 87.746094 127.089844 L 87.898438 126.886719 C 88.195312 127.335938 88.261719 127.90625 88.082031 128.40625 C 88.078125 128.40625 88.078125 128.410156 88.078125 128.414062 C 88.007812 128.601562 87.90625 128.78125 87.765625 128.9375 L 84.148438 133.066406 L 83.0625 134.308594 L 80.007812 137.792969 C 80 137.804688 79.992188 137.8125 79.984375 137.820312 C 79.667969 138.171875 79.21875 138.371094 78.75 138.375 C 78.746094 138.375 78.738281 138.375 78.734375 138.375 " fill-opacity="1" fill-rule="nonzero"/><path fill="#80cc28" d="M 78.152344 168.804688 C 77.804688 168.679688 77.503906 168.4375 77.300781 168.117188 L 73.949219 163.210938 C 73.453125 162.417969 73.6875 161.375 74.480469 160.878906 C 75.277344 160.378906 76.320312 160.621094 76.816406 161.410156 L 78.957031 164.390625 L 85.214844 157.246094 C 85.828125 156.542969 86.894531 156.46875 87.601562 157.082031 C 88.308594 157.699219 88.378906 158.765625 87.765625 159.472656 L 80.007812 168.332031 C 79.65625 168.734375 79.132812 168.945312 78.601562 168.902344 C 78.445312 168.890625 78.292969 168.859375 78.152344 168.804688 " fill-opacity="1" fill-rule="nonzero"/><path fill="#787576" d="M 78.75 168.910156 C 79.214844 168.90625 79.65625 168.710938 79.976562 168.367188 C 79.65625 168.710938 79.214844 168.90625 78.75 168.910156 " fill-opacity="1" fill-rule="nonzero"/><path fill="#cccbcb" d="M 77.492188 168.367188 C 77.421875 168.289062 77.359375 168.207031 77.300781 168.117188 L 73.949219 163.210938 C 73.949219 163.207031 73.949219 163.207031 73.945312 163.203125 C 73.949219 163.207031 73.949219 163.207031 73.949219 163.210938 L 77.300781 168.117188 C 77.359375 168.207031 77.421875 168.289062 77.492188 168.367188 " fill-opacity="1" fill-rule="nonzero"/><path fill="#cccbcb" d="M 84.148438 163.605469 L 87.765625 159.472656 C 87.902344 159.316406 88.003906 159.140625 88.074219 158.953125 C 88.003906 159.140625 87.902344 159.316406 87.765625 159.472656 L 84.148438 163.605469 " fill-opacity="1" fill-rule="nonzero"/><path fill="#cccbcb" d="M 88.074219 158.953125 C 88.074219 158.953125 88.078125 158.953125 88.078125 158.949219 C 88.078125 158.953125 88.074219 158.953125 88.074219 158.953125 " fill-opacity="1" fill-rule="nonzero"/><path fill="#65a21f" d="M 78.734375 168.910156 C 78.695312 168.910156 78.652344 168.910156 78.609375 168.90625 C 78.609375 168.90625 78.605469 168.90625 78.601562 168.902344 C 78.445312 168.890625 78.292969 168.859375 78.152344 168.804688 C 77.902344 168.714844 77.675781 168.566406 77.492188 168.367188 C 77.421875 168.289062 77.359375 168.207031 77.300781 168.117188 L 73.949219 163.210938 C 73.949219 163.207031 73.949219 163.207031 73.945312 163.203125 C 73.945312 163.199219 73.941406 163.199219 73.941406 163.199219 C 73.941406 163.195312 73.941406 163.195312 73.941406 163.195312 C 73.59375 162.628906 73.625 161.9375 73.957031 161.410156 L 77.28125 166.273438 C 77.484375 166.59375 77.785156 166.832031 78.132812 166.960938 C 78.277344 167.015625 78.429688 167.046875 78.582031 167.0625 C 78.628906 167.0625 78.667969 167.0625 78.714844 167.0625 C 79.203125 167.0625 79.667969 166.855469 79.992188 166.484375 L 87.746094 157.625 L 87.898438 157.421875 C 88.195312 157.875 88.261719 158.445312 88.078125 158.949219 C 88.078125 158.953125 88.074219 158.953125 88.074219 158.953125 C 88.003906 159.140625 87.902344 159.316406 87.765625 159.472656 L 84.148438 163.605469 L 83.0625 164.84375 L 80.007812 168.332031 C 80 168.335938 79.992188 168.347656 79.984375 168.359375 C 79.980469 168.359375 79.976562 168.363281 79.976562 168.367188 C 79.65625 168.710938 79.214844 168.90625 78.75 168.910156 C 78.746094 168.910156 78.738281 168.910156 78.734375 168.910156 " fill-opacity="1" fill-rule="nonzero"/><path fill="#80cc28" d="M 78.152344 183.726562 C 77.804688 183.597656 77.503906 183.359375 77.300781 183.035156 L 73.949219 178.125 C 73.453125 177.339844 73.6875 176.292969 74.480469 175.796875 C 75.277344 175.300781 76.320312 175.539062 76.816406 176.332031 L 78.957031 179.308594 L 85.214844 172.164062 C 85.828125 171.460938 86.894531 171.390625 87.601562 172.003906 C 88.308594 172.617188 88.378906 173.6875 87.765625 174.390625 L 80.007812 183.25 C 79.65625 183.652344 79.132812 183.863281 78.601562 183.824219 C 78.445312 183.808594 78.292969 183.777344 78.152344 183.726562 " fill-opacity="1" fill-rule="nonzero"/><path fill="#787576" d="M 78.742188 183.832031 C 79.207031 183.828125 79.65625 183.628906 79.976562 183.285156 C 79.65625 183.628906 79.210938 183.828125 78.742188 183.832031 " fill-opacity="1" fill-rule="nonzero"/><path fill="#cccbcb" d="M 77.492188 183.285156 C 77.421875 183.210938 77.359375 183.128906 77.300781 183.035156 L 73.949219 178.125 C 73.949219 178.125 73.949219 178.125 73.945312 178.121094 C 73.949219 178.125 73.949219 178.125 73.949219 178.125 L 77.300781 183.035156 C 77.359375 183.128906 77.421875 183.210938 77.492188 183.285156 " fill-opacity="1" fill-rule="nonzero"/><path fill="#cccbcb" d="M 84.148438 178.523438 L 87.765625 174.390625 C 87.886719 174.25 87.984375 174.097656 88.050781 173.933594 C 87.984375 174.097656 87.886719 174.25 87.765625 174.390625 L 84.148438 178.523438 " fill-opacity="1" fill-rule="nonzero"/><path fill="#cccbcb" d="M 88.050781 173.929688 C 88.050781 173.929688 88.050781 173.925781 88.054688 173.925781 C 88.050781 173.925781 88.050781 173.929688 88.050781 173.929688 " fill-opacity="1" fill-rule="nonzero"/><path fill="#65a21f" d="M 78.738281 183.832031 C 78.734375 183.832031 78.734375 183.832031 78.734375 183.832031 C 78.691406 183.832031 78.644531 183.828125 78.601562 183.824219 C 78.445312 183.808594 78.292969 183.777344 78.152344 183.726562 C 77.902344 183.632812 77.675781 183.484375 77.492188 183.285156 C 77.421875 183.210938 77.359375 183.128906 77.300781 183.035156 L 73.949219 178.125 C 73.949219 178.125 73.949219 178.125 73.945312 178.121094 C 73.59375 177.550781 73.621094 176.859375 73.957031 176.328125 L 77.28125 181.195312 C 77.484375 181.515625 77.785156 181.753906 78.132812 181.882812 C 78.277344 181.933594 78.429688 181.96875 78.582031 181.976562 C 78.625 181.980469 78.667969 181.980469 78.714844 181.980469 C 79.203125 181.980469 79.667969 181.773438 79.992188 181.402344 L 87.746094 172.542969 L 87.898438 172.339844 C 88.210938 172.808594 88.269531 173.40625 88.054688 173.925781 C 88.050781 173.925781 88.050781 173.929688 88.050781 173.929688 C 88.050781 173.929688 88.050781 173.929688 88.050781 173.933594 C 87.984375 174.097656 87.886719 174.25 87.765625 174.390625 L 84.148438 178.523438 L 83.0625 179.761719 L 80.007812 183.25 C 80.003906 183.253906 80 183.261719 79.992188 183.269531 C 79.988281 183.273438 79.984375 183.277344 79.980469 183.28125 C 79.980469 183.28125 79.976562 183.28125 79.976562 183.285156 C 79.65625 183.628906 79.207031 183.828125 78.742188 183.832031 C 78.738281 183.832031 78.738281 183.832031 78.738281 183.832031 " fill-opacity="1" fill-rule="nonzero"/><path fill="#ee2629" d="M 80.59375 145.546875 L 78.25 147.890625 L 75.902344 145.546875 C 75.308594 144.949219 74.335938 144.949219 73.738281 145.546875 C 73.140625 146.144531 73.140625 147.113281 73.738281 147.714844 L 76.085938 150.058594 L 73.738281 152.40625 C 73.140625 153 73.140625 153.972656 73.738281 154.566406 C 74.335938 155.164062 75.308594 155.164062 75.902344 154.566406 L 78.25 152.222656 L 80.59375 154.566406 C 81.191406 155.164062 82.160156 155.164062 82.757812 154.566406 C 83.355469 153.972656 83.355469 153 82.757812 152.40625 L 80.410156 150.058594 L 82.757812 147.714844 C 83.355469 147.113281 83.355469 146.144531 82.757812 145.546875 C 82.160156 144.949219 81.191406 144.949219 80.59375 145.546875 " fill-opacity="1" fill-rule="nonzero"/><path fill="#cccbcb" d="M 74.820312 155.015625 C 74.429688 155.015625 74.035156 154.867188 73.738281 154.566406 C 73.726562 154.554688 73.71875 154.546875 73.707031 154.53125 C 73.71875 154.546875 73.726562 154.554688 73.738281 154.566406 C 74.035156 154.867188 74.429688 155.015625 74.820312 155.015625 C 75.210938 155.015625 75.601562 154.867188 75.902344 154.566406 L 75.9375 154.53125 L 75.902344 154.566406 C 75.601562 154.867188 75.210938 155.015625 74.820312 155.015625 M 81.675781 155.015625 C 81.285156 155.015625 80.894531 154.867188 80.59375 154.566406 L 80.558594 154.53125 L 80.59375 154.566406 C 80.894531 154.867188 81.285156 155.015625 81.675781 155.015625 C 82.066406 155.015625 82.460938 154.867188 82.757812 154.566406 C 82.761719 154.566406 82.761719 154.5625 82.765625 154.558594 C 82.761719 154.5625 82.761719 154.566406 82.757812 154.566406 C 82.460938 154.867188 82.066406 155.015625 81.675781 155.015625 " fill-opacity="1" fill-rule="nonzero"/><path fill="#787576" d="M 75.9375 154.53125 L 77.019531 153.449219 L 75.9375 154.53125 M 73.707031 154.53125 C 73.667969 154.496094 73.632812 154.457031 73.601562 154.414062 C 73.636719 154.457031 73.667969 154.496094 73.707031 154.53125 " fill-opacity="1" fill-rule="nonzero"/><path fill="#bf1e1f" d="M 74.820312 155.015625 C 74.429688 155.015625 74.035156 154.867188 73.738281 154.566406 C 73.726562 154.554688 73.71875 154.546875 73.707031 154.53125 C 73.667969 154.496094 73.636719 154.457031 73.601562 154.414062 C 73.292969 154.007812 73.21875 153.480469 73.371094 153.011719 C 73.445312 153.164062 73.539062 153.304688 73.660156 153.429688 C 73.960938 153.730469 74.355469 153.878906 74.742188 153.878906 C 75.136719 153.878906 75.527344 153.730469 75.828125 153.429688 L 78.175781 151.082031 L 80.519531 153.429688 C 80.816406 153.730469 81.210938 153.878906 81.597656 153.878906 C 81.992188 153.878906 82.382812 153.730469 82.683594 153.429688 C 82.859375 153.253906 82.976562 153.042969 83.046875 152.820312 C 83.324219 153.390625 83.230469 154.089844 82.765625 154.558594 C 82.761719 154.5625 82.761719 154.566406 82.757812 154.566406 C 82.460938 154.867188 82.066406 155.015625 81.675781 155.015625 C 81.285156 155.015625 80.894531 154.867188 80.59375 154.566406 L 78.25 152.222656 L 77.019531 153.449219 L 75.902344 154.566406 C 75.601562 154.867188 75.210938 155.015625 74.820312 155.015625 " fill-opacity="1" fill-rule="nonzero"/><path fill="#f03f37" d="M 80.839844 151.929688 C 80.757812 151.929688 80.679688 151.902344 80.617188 151.839844 L 75.125 146.472656 C 74.996094 146.355469 74.992188 146.152344 75.117188 146.027344 C 75.179688 145.960938 75.261719 145.929688 75.34375 145.929688 C 75.425781 145.929688 75.503906 145.960938 75.566406 146.019531 L 81.0625 151.386719 C 81.1875 151.507812 81.1875 151.710938 81.066406 151.832031 C 81.003906 151.898438 80.921875 151.929688 80.839844 151.929688 " fill-opacity="1" fill-rule="nonzero"/><path fill="#ee2629" d="M 80.59375 190.304688 L 78.25 192.652344 L 75.902344 190.304688 C 75.308594 189.707031 74.335938 189.707031 73.738281 190.304688 C 73.140625 190.898438 73.140625 191.871094 73.738281 192.46875 L 76.085938 194.8125 L 73.738281 197.160156 C 73.140625 197.757812 73.140625 198.726562 73.738281 199.324219 C 74.335938 199.921875 75.308594 199.921875 75.902344 199.324219 L 78.25 196.976562 L 80.59375 199.324219 C 81.191406 199.921875 82.160156 199.921875 82.757812 199.324219 C 83.355469 198.726562 83.355469 197.757812 82.757812 197.160156 L 80.410156 194.8125 L 82.757812 192.46875 C 83.355469 191.871094 83.355469 190.898438 82.757812 190.304688 C 82.160156 189.707031 81.191406 189.707031 80.59375 190.304688 " fill-opacity="1" fill-rule="nonzero"/><path fill="#cccbcb" d="M 81.675781 199.773438 C 81.285156 199.773438 80.894531 199.621094 80.59375 199.324219 L 80.558594 199.289062 L 80.59375 199.324219 C 80.894531 199.621094 81.285156 199.773438 81.675781 199.773438 C 82.066406 199.773438 82.460938 199.621094 82.757812 199.324219 C 82.761719 199.324219 82.761719 199.320312 82.765625 199.320312 C 82.761719 199.320312 82.761719 199.324219 82.757812 199.324219 C 82.460938 199.621094 82.066406 199.773438 81.675781 199.773438 M 74.820312 199.773438 C 74.429688 199.773438 74.035156 199.621094 73.738281 199.324219 C 73.726562 199.3125 73.71875 199.300781 73.707031 199.289062 C 73.71875 199.300781 73.726562 199.3125 73.738281 199.324219 C 74.035156 199.621094 74.429688 199.773438 74.820312 199.773438 C 75.214844 199.773438 75.601562 199.621094 75.902344 199.324219 L 75.9375 199.289062 L 75.902344 199.324219 C 75.601562 199.621094 75.214844 199.773438 74.820312 199.773438 " fill-opacity="1" fill-rule="nonzero"/><path fill="#787576" d="M 75.9375 199.289062 L 77.019531 198.203125 L 75.9375 199.289062 M 73.707031 199.289062 C 73.667969 199.25 73.632812 199.210938 73.601562 199.171875 C 73.632812 199.210938 73.667969 199.25 73.707031 199.289062 " fill-opacity="1" fill-rule="nonzero"/><path fill="#cccbcb" d="M 82.769531 199.316406 C 82.769531 199.3125 82.769531 199.3125 82.769531 199.3125 C 82.769531 199.3125 82.769531 199.3125 82.769531 199.316406 M 82.777344 199.308594 C 82.777344 199.308594 82.777344 199.308594 82.777344 199.304688 C 82.777344 199.308594 82.777344 199.308594 82.777344 199.308594 " fill-opacity="1" fill-rule="nonzero"/><path fill="#bf1e1f" d="M 81.675781 199.773438 C 81.285156 199.773438 80.894531 199.621094 80.59375 199.324219 L 80.558594 199.289062 L 78.25 196.976562 L 77.019531 198.203125 L 75.9375 199.289062 L 75.902344 199.324219 C 75.601562 199.621094 75.214844 199.773438 74.820312 199.773438 C 74.429688 199.773438 74.035156 199.621094 73.738281 199.324219 C 73.726562 199.3125 73.71875 199.300781 73.707031 199.289062 C 73.667969 199.25 73.632812 199.210938 73.601562 199.171875 C 73.601562 199.171875 73.601562 199.171875 73.601562 199.167969 C 73.601562 199.167969 73.601562 199.167969 73.601562 199.164062 C 73.292969 198.757812 73.222656 198.234375 73.371094 197.765625 C 73.445312 197.917969 73.539062 198.0625 73.660156 198.1875 C 73.960938 198.484375 74.355469 198.632812 74.742188 198.632812 C 75.136719 198.632812 75.527344 198.484375 75.828125 198.1875 L 78.175781 195.84375 L 80.519531 198.1875 C 80.816406 198.484375 81.210938 198.632812 81.597656 198.632812 C 81.992188 198.632812 82.382812 198.484375 82.683594 198.1875 C 82.859375 198.011719 82.976562 197.800781 83.046875 197.578125 C 83.320312 198.140625 83.234375 198.832031 82.777344 199.304688 C 82.777344 199.308594 82.777344 199.308594 82.777344 199.308594 C 82.773438 199.308594 82.773438 199.3125 82.769531 199.3125 C 82.769531 199.3125 82.769531 199.3125 82.769531 199.316406 C 82.765625 199.316406 82.765625 199.320312 82.765625 199.320312 C 82.761719 199.320312 82.761719 199.324219 82.757812 199.324219 C 82.460938 199.621094 82.066406 199.773438 81.675781 199.773438 " fill-opacity="1" fill-rule="nonzero"/><path fill="#f03f37" d="M 80.839844 196.6875 C 80.757812 196.6875 80.679688 196.660156 80.617188 196.597656 L 75.125 191.230469 C 74.996094 191.109375 74.992188 190.90625 75.117188 190.78125 C 75.179688 190.71875 75.261719 190.6875 75.34375 190.6875 C 75.425781 190.6875 75.503906 190.71875 75.566406 190.78125 L 81.0625 196.140625 C 81.1875 196.265625 81.1875 196.464844 81.066406 196.589844 C 81.003906 196.65625 80.921875 196.6875 80.839844 196.6875 " fill-opacity="1" fill-rule="nonzero"/><path fill="#6c696a" d="M 215.511719 258.324219 C 215.511719 258.324219 175.570312 227.941406 160.589844 194.308594 C 145.609375 160.671875 144.988281 117.273438 144.988281 117.273438 C 144.988281 117.273438 164.484375 113.777344 183.058594 103.167969 C 204.902344 90.691406 215.511719 71.699219 215.511719 71.699219 L 215.511719 258.324219 " fill-opacity="1" fill-rule="nonzero"/><path fill="#5b8b22" d="M 215.511719 242.53125 C 215.511719 242.53125 182.328125 217.292969 169.882812 189.351562 C 157.441406 161.40625 156.917969 125.351562 156.917969 125.351562 C 156.917969 125.351562 173.121094 122.445312 188.546875 113.632812 C 206.699219 103.265625 215.511719 87.492188 215.511719 87.492188 L 215.511719 242.53125 " fill-opacity="1" fill-rule="nonzero"/><path fill="#466b19" d="M 215.511719 242.53125 C 215.511719 242.53125 182.328125 217.292969 169.882812 189.351562 C 157.445312 161.417969 156.921875 125.386719 156.917969 125.351562 C 156.917969 125.351562 173.121094 122.445312 188.546875 113.632812 C 206.699219 103.265625 215.511719 87.492188 215.511719 87.492188 L 215.511719 94.722656 C 211.324219 100.257812 203.644531 108.804688 192.347656 115.261719 C 176.917969 124.074219 160.71875 126.980469 160.71875 126.980469 C 160.71875 126.980469 161.234375 163.035156 173.683594 190.976562 C 183.550781 213.136719 206.453125 233.585938 215.511719 241.105469 L 215.511719 242.53125 " fill-opacity="1" fill-rule="nonzero"/><path fill="#918f8f" d="M 215.511719 258.253906 C 215.511719 258.253906 255.453125 227.871094 270.433594 194.234375 C 285.414062 160.601562 286.039062 117.199219 286.039062 117.199219 C 286.039062 117.199219 266.539062 113.703125 247.96875 103.09375 C 226.121094 90.617188 215.511719 71.628906 215.511719 71.628906 L 215.511719 258.253906 " fill-opacity="1" fill-rule="nonzero"/><path fill="#80cc28" d="M 215.511719 242.460938 C 215.511719 242.460938 248.695312 217.21875 261.140625 189.277344 C 273.582031 161.332031 274.101562 125.277344 274.101562 125.277344 C 274.101562 125.277344 257.902344 122.375 242.472656 113.5625 C 224.328125 103.195312 215.511719 87.421875 215.511719 87.421875 L 215.511719 242.460938 " fill-opacity="1" fill-rule="nonzero"/><path fill="#c4c3c3" d="M 242.472656 113.5625 C 224.328125 103.195312 215.511719 87.421875 215.511719 87.421875 L 215.511719 93.722656 C 219.378906 99.109375 227.40625 108.671875 239.761719 115.730469 C 255.191406 124.546875 271.390625 127.445312 271.390625 127.445312 C 271.390625 127.445312 270.871094 163.503906 258.425781 191.445312 C 248.21875 214.367188 224.070312 235.460938 215.714844 242.300781 C 218.359375 240.257812 249.234375 216.011719 261.140625 189.277344 C 273.582031 161.332031 274.101562 125.277344 274.101562 125.277344 C 274.101562 125.277344 257.902344 122.375 242.472656 113.5625 " fill-opacity="1" fill-rule="nonzero"/><path fill="#ffffff" d="M 212.78125 191.46875 C 211.472656 191.46875 210.179688 191.039062 209.125 190.21875 L 191.402344 176.472656 C 188.796875 174.453125 188.324219 170.707031 190.339844 168.101562 C 192.363281 165.496094 196.109375 165.023438 198.714844 167.039062 L 210.089844 175.863281 L 228.1875 128.75 C 229.367188 125.671875 232.820312 124.136719 235.894531 125.316406 C 238.972656 126.5 240.507812 129.953125 239.328125 133.03125 L 218.351562 187.640625 C 217.675781 189.402344 216.203125 190.742188 214.382812 191.246094 C 213.855469 191.394531 213.316406 191.46875 212.78125 191.46875 " fill-opacity="1" fill-rule="nonzero"/><path fill="#cccbcc" d="M 237.28125 126.082031 C 237.21875 126.371094 237.140625 126.65625 237.027344 126.941406 L 216.054688 181.554688 C 215.375 183.316406 213.90625 184.652344 212.089844 185.164062 C 211.558594 185.308594 211.015625 185.382812 210.480469 185.382812 C 209.171875 185.382812 207.886719 184.949219 206.824219 184.128906 L 189.246094 170.496094 C 188.773438 172.671875 189.527344 175.019531 191.402344 176.472656 L 209.125 190.21875 C 210.179688 191.039062 211.472656 191.46875 212.78125 191.46875 C 213.316406 191.46875 213.855469 191.394531 214.382812 191.246094 C 216.203125 190.742188 217.675781 189.402344 218.351562 187.640625 L 239.328125 133.03125 C 240.316406 130.460938 239.398438 127.628906 237.28125 126.082031 " fill-opacity="1" fill-rule="nonzero"/></svg>