<svg xmlns="http://www.w3.org/2000/svg" xmlns:xlink="http://www.w3.org/1999/xlink" width="500" zoomAndPan="magnify" viewBox="0 0 375 374.999991" height="500" preserveAspectRatio="xMidYMid meet" version="1.0"><defs><clipPath id="c9dea24573"><path d="M 179 196 L 355.867188 196 L 355.867188 329.347656 L 179 329.347656 Z M 179 196 " clip-rule="nonzero"/></clipPath><clipPath id="999159a7cc"><path d="M 323 259 L 341 259 L 341 329.347656 L 323 329.347656 Z M 323 259 " clip-rule="nonzero"/></clipPath><clipPath id="2b548bf06f"><path d="M 194 258 L 212 258 L 212 329.347656 L 194 329.347656 Z M 194 258 " clip-rule="nonzero"/></clipPath><clipPath id="173a0b1e62"><path d="M 21 296 L 75 296 L 75 329.347656 L 21 329.347656 Z M 21 296 " clip-rule="nonzero"/></clipPath><clipPath id="12f7fad48c"><path d="M 19.117188 189 L 237 189 L 237 329.347656 L 19.117188 329.347656 Z M 19.117188 189 " clip-rule="nonzero"/></clipPath><clipPath id="a761fb2c6d"><path d="M 41 252 L 55 252 L 55 329.347656 L 41 329.347656 Z M 41 252 " clip-rule="nonzero"/></clipPath></defs><path fill="#ff8888" d="M 305.773438 190.9375 L 234.238281 190.9375 C 236.429688 196.296875 238.882812 201.746094 243.335938 206.230469 C 247.953125 210.875 249.410156 217.574219 248.289062 224.1875 L 291.726562 224.1875 C 290.601562 217.574219 292.0625 210.875 296.679688 206.230469 C 301.125 201.746094 303.582031 196.296875 305.773438 190.9375 Z M 305.773438 190.9375 " fill-opacity="1" fill-rule="nonzero"/><path fill="#541c3f" d="M 327.136719 149.355469 C 325.242188 141.386719 320.589844 132.996094 317.589844 128.945312 C 317.503906 128.824219 317.46875 128.691406 317.488281 128.546875 C 317.507812 128.402344 317.578125 128.28125 317.691406 128.191406 C 318.132812 127.820312 318.507812 127.390625 318.808594 126.898438 C 319.113281 126.410156 319.328125 125.882812 319.460938 125.324219 C 319.59375 124.761719 319.636719 124.195312 319.585938 123.621094 C 319.535156 123.046875 319.394531 122.496094 319.164062 121.96875 C 316.324219 114.425781 306.5625 111.089844 299.101562 109.109375 C 299.023438 109.085938 298.953125 109.050781 298.886719 108.996094 C 298.824219 108.941406 298.777344 108.875 298.746094 108.796875 C 298.714844 108.722656 298.703125 108.640625 298.707031 108.558594 C 298.714844 108.476562 298.738281 108.398438 298.78125 108.328125 C 302.9375 101.082031 287.945312 97.6875 280.699219 100.601562 C 280.613281 100.636719 280.527344 100.648438 280.433594 100.636719 C 280.34375 100.625 280.261719 100.59375 280.1875 100.539062 C 280.113281 100.484375 280.054688 100.414062 280.019531 100.332031 C 279.980469 100.246094 279.964844 100.160156 279.972656 100.066406 C 280.15625 97.667969 280.65625 94.582031 277.144531 93.210938 C 269.335938 90.246094 261.054688 94.253906 252.707031 101.109375 C 252.636719 101.164062 252.558594 101.203125 252.46875 101.21875 C 252.382812 101.238281 252.296875 101.234375 252.210938 101.207031 C 252.125 101.183594 252.050781 101.140625 251.988281 101.078125 C 251.921875 101.015625 251.878906 100.941406 251.847656 100.855469 C 250.410156 96.871094 238.101562 96.742188 237.898438 110.929688 C 237.898438 111.085938 237.84375 111.214844 237.730469 111.320312 C 237.621094 111.425781 237.488281 111.472656 237.335938 111.464844 C 231.375 111.035156 217.019531 119.574219 218.117188 125.757812 C 218.277344 126.742188 218.648438 127.644531 219.226562 128.457031 C 219.808594 129.269531 220.539062 129.910156 221.417969 130.382812 C 221.492188 130.421875 221.554688 130.476562 221.605469 130.546875 C 221.652344 130.617188 221.683594 130.691406 221.695312 130.777344 C 221.710938 130.859375 221.703125 130.941406 221.675781 131.023438 C 221.652344 131.105469 221.609375 131.175781 221.546875 131.234375 C 215.964844 136.773438 211.820312 148.898438 212.398438 153.519531 C 213.019531 158.589844 215.519531 160.035156 217.773438 160.171875 C 217.917969 160.183594 218.035156 160.242188 218.132812 160.351562 C 218.226562 160.460938 218.273438 160.585938 218.265625 160.730469 C 218.007812 167.433594 218.554688 165.953125 219.191406 172.722656 C 219.207031 172.863281 219.265625 172.976562 219.367188 173.070312 C 219.46875 173.164062 219.589844 173.214844 219.726562 173.21875 L 321.78125 173.753906 C 321.910156 173.75 322.027344 173.707031 322.125 173.625 C 322.226562 173.542969 322.289062 173.441406 322.316406 173.3125 C 323.570312 167.054688 322.960938 163.332031 323.042969 161.949219 C 323.058594 161.683594 323.195312 161.519531 323.453125 161.457031 C 327.863281 160.3125 328.261719 154.085938 327.136719 149.355469 Z M 327.136719 149.355469 " fill-opacity="1" fill-rule="nonzero"/><path fill="#ff7171" d="M 322.796875 167.179688 C 319.144531 164.4375 313.480469 164.828125 310.246094 166.382812 L 305.773438 190.9375 C 312.207031 194.191406 322.214844 189.378906 325.132812 183.21875 C 327.671875 177.832031 327.363281 170.648438 322.796875 167.179688 Z M 322.796875 167.179688 " fill-opacity="1" fill-rule="nonzero"/><path fill="#ff7171" d="M 217.21875 167.179688 C 212.644531 170.648438 212.335938 177.832031 214.882812 183.21875 C 217.792969 189.386719 227.808594 194.183594 234.238281 190.9375 L 229.789062 166.382812 C 226.527344 164.828125 220.882812 164.417969 217.21875 167.179688 Z M 217.21875 167.179688 " fill-opacity="1" fill-rule="nonzero"/><path fill="#541c3f" d="M 226.398438 161.125 C 226.78125 173.773438 230.773438 183.746094 232.855469 189.230469 C 233.355469 190.582031 234.117188 191.765625 235.136719 192.78125 C 243.488281 200.964844 253.074219 202.707031 260.78125 206.515625 C 262.214844 207.226562 263.710938 207.765625 265.269531 208.128906 C 266.828125 208.492188 268.40625 208.675781 270.007812 208.675781 C 271.609375 208.675781 273.1875 208.492188 274.746094 208.128906 C 276.304688 207.765625 277.800781 207.226562 279.234375 206.515625 C 286.9375 202.707031 296.527344 200.992188 304.878906 192.765625 C 305.894531 191.75 306.65625 190.566406 307.160156 189.214844 C 309.214844 183.730469 313.234375 173.773438 313.609375 161.113281 Z M 226.398438 161.125 " fill-opacity="1" fill-rule="nonzero"/><g clip-path="url(#c9dea24573)"><path fill="#ffe3e6" d="M 354.289062 329.363281 L 181 329.363281 C 180.816406 329.363281 180.644531 329.328125 180.476562 329.257812 C 180.308594 329.1875 180.160156 329.089844 180.03125 328.960938 C 179.902344 328.832031 179.804688 328.683594 179.734375 328.515625 C 179.664062 328.347656 179.628906 328.171875 179.628906 327.992188 C 179.464844 309.929688 179.457031 243.820312 193.128906 226.429688 C 203.191406 213.625 214.238281 212.78125 224.15625 209.53125 C 230.320312 207.523438 251.253906 196.734375 267.644531 196.734375 C 284.035156 196.734375 304.992188 207.523438 311.132812 209.53125 C 321.050781 212.78125 332.089844 213.644531 342.160156 226.429688 C 355.816406 243.832031 355.816406 309.949219 355.660156 328.003906 C 355.65625 328.183594 355.621094 328.359375 355.550781 328.523438 C 355.480469 328.691406 355.382812 328.839844 355.253906 328.964844 C 355.125 329.09375 354.976562 329.191406 354.808594 329.257812 C 354.644531 329.328125 354.46875 329.363281 354.289062 329.363281 Z M 354.289062 329.363281 " fill-opacity="1" fill-rule="nonzero"/></g><g clip-path="url(#999159a7cc)"><path fill="#ffabab" d="M 340.660156 264.058594 C 340.605469 264.273438 335.371094 285.128906 334.378906 292.039062 C 333.089844 301.03125 332.015625 328.730469 331.996094 329.363281 L 323.773438 329.363281 C 323.765625 329.261719 323.765625 329.160156 323.773438 329.058594 C 323.816406 327.886719 324.878906 300.339844 326.234375 290.875 C 327.28125 283.546875 332.460938 262.929688 332.6875 262.050781 C 332.832031 261.539062 333.070312 261.070312 333.398438 260.652344 C 333.730469 260.230469 334.125 259.886719 334.585938 259.621094 C 335.046875 259.355469 335.542969 259.1875 336.070312 259.113281 C 336.601562 259.039062 337.121094 259.070312 337.640625 259.199219 C 338.15625 259.328125 338.628906 259.550781 339.0625 259.867188 C 339.492188 260.183594 339.847656 260.566406 340.128906 261.019531 C 340.410156 261.472656 340.59375 261.960938 340.6875 262.488281 C 340.777344 263.015625 340.765625 263.539062 340.652344 264.058594 Z M 340.660156 264.058594 " fill-opacity="1" fill-rule="nonzero"/></g><g clip-path="url(#2b548bf06f)"><path fill="#ffabab" d="M 211.519531 329.058594 C 211.53125 329.160156 211.53125 329.261719 211.519531 329.363281 L 203.300781 329.363281 C 203.300781 328.75 202.207031 301.03125 200.917969 292.046875 C 199.925781 285.128906 194.683594 264.273438 194.628906 264.058594 C 194.5625 263.796875 194.523438 263.53125 194.511719 263.261719 C 194.496094 262.992188 194.511719 262.722656 194.550781 262.457031 C 194.589844 262.1875 194.652344 261.929688 194.742188 261.675781 C 194.835938 261.417969 194.949219 261.175781 195.085938 260.945312 C 195.226562 260.710938 195.386719 260.496094 195.566406 260.296875 C 195.75 260.097656 195.945312 259.914062 196.164062 259.753906 C 196.378906 259.59375 196.609375 259.453125 196.855469 259.339844 C 197.097656 259.222656 197.351562 259.132812 197.613281 259.066406 C 197.875 259 198.140625 258.960938 198.410156 258.945312 C 198.679688 258.933594 198.949219 258.945312 199.214844 258.984375 C 199.480469 259.023438 199.742188 259.089844 199.996094 259.179688 C 200.25 259.269531 200.492188 259.386719 200.726562 259.523438 C 200.957031 259.664062 201.171875 259.824219 201.375 260.003906 C 201.574219 260.183594 201.753906 260.382812 201.914062 260.601562 C 202.074219 260.816406 202.214844 261.046875 202.328125 261.292969 C 202.445312 261.535156 202.535156 261.789062 202.601562 262.050781 C 202.820312 262.929688 208 283.546875 209.046875 290.875 C 210.410156 300.355469 211.472656 327.886719 211.519531 329.058594 Z M 211.519531 329.058594 " fill-opacity="1" fill-rule="nonzero"/></g><g clip-path="url(#173a0b1e62)"><path fill="#ff8888" d="M 74.203125 296.390625 L 74.203125 329.210938 L 23.066406 329.210938 C 22.878906 329.210938 22.703125 329.175781 22.53125 329.101562 C 22.359375 329.03125 22.210938 328.925781 22.082031 328.792969 C 21.949219 328.660156 21.851562 328.503906 21.785156 328.332031 C 21.71875 328.15625 21.691406 327.976562 21.695312 327.792969 L 23.230469 298.152344 L 44.167969 297.433594 L 52.386719 297.144531 Z M 74.203125 296.390625 " fill-opacity="1" fill-rule="nonzero"/></g><path fill="#9b2a42" d="M 150.9375 83.929688 C 150.457031 83.125 150.132812 82.261719 149.96875 81.335938 C 149.808594 80.410156 149.816406 79.488281 149.992188 78.566406 C 150.621094 75.042969 150.039062 71.132812 149.308594 68.214844 C 149.253906 67.976562 149.175781 67.75 149.074219 67.527344 C 148.976562 67.308594 148.851562 67.101562 148.707031 66.90625 C 148.5625 66.710938 148.398438 66.535156 148.21875 66.375 C 148.035156 66.214844 147.839844 66.074219 147.628906 65.953125 C 147.417969 65.835938 147.195312 65.738281 146.964844 65.667969 C 146.734375 65.59375 146.5 65.546875 146.257812 65.523438 C 146.015625 65.5 145.773438 65.5 145.535156 65.527344 C 145.292969 65.554688 145.058594 65.609375 144.828125 65.683594 C 133.28125 69.796875 91.746094 45.863281 66.785156 85.289062 C 58.792969 98.914062 60.054688 119.144531 61.992188 132.542969 L 158.082031 132.542969 C 161.925781 116.6875 158.9375 96.894531 150.9375 83.929688 Z M 150.9375 83.929688 " fill-opacity="1" fill-rule="nonzero"/><path fill="#ff7171" d="M 62.027344 132.542969 C 57.527344 135.105469 56.894531 142.34375 58.039062 146.417969 C 59.410156 151.285156 65.648438 160.339844 78.328125 156.59375 L 71.476562 131.40625 C 69.890625 130.941406 68.277344 130.808594 66.636719 131.007812 C 64.992188 131.203125 63.457031 131.714844 62.027344 132.542969 Z M 62.027344 132.542969 " fill-opacity="1" fill-rule="nonzero"/><path fill="#ff7171" d="M 158.082031 132.542969 C 156.652344 131.71875 155.117188 131.207031 153.476562 131.007812 C 151.839844 130.8125 150.226562 130.941406 148.644531 131.40625 L 141.792969 156.59375 C 154.464844 160.339844 160.710938 151.285156 162.082031 146.417969 C 163.21875 142.34375 162.589844 135.105469 158.082031 132.542969 Z M 158.082031 132.542969 " fill-opacity="1" fill-rule="nonzero"/><path fill="#ff8888" d="M 129.890625 183.828125 C 128.847656 177.695312 130.203125 171.492188 134.476562 167.179688 C 146.121094 155.445312 147.621094 138.390625 149.191406 127.601562 L 70.238281 127.601562 C 71.804688 138.417969 73.972656 155.445312 85.621094 167.179688 C 89.902344 171.484375 91.25 177.695312 90.210938 183.828125 C 89.019531 190.847656 86.710938 198.832031 82.300781 200.277344 L 137.78125 200.277344 C 133.394531 198.851562 131.082031 190.867188 129.890625 183.828125 Z M 129.890625 183.828125 " fill-opacity="1" fill-rule="nonzero"/><path fill="#9b2a42" d="M 147.339844 147.148438 C 139.753906 160.289062 124.808594 162.832031 116.253906 168.0625 C 115.3125 168.636719 114.3125 169.074219 113.25 169.371094 C 112.1875 169.671875 111.109375 169.820312 110.003906 169.820312 C 108.902344 169.820312 107.820312 169.671875 106.761719 169.371094 C 105.699219 169.074219 104.699219 168.636719 103.757812 168.0625 C 95.203125 162.832031 81.09375 159.777344 72.675781 147.148438 C 67.609375 139.554688 59.75 125.832031 68.9375 110.820312 C 78.121094 95.808594 135.949219 95.261719 135.949219 95.261719 L 150.394531 113.277344 L 155.566406 128.5625 C 155.566406 128.5625 149.875 142.75 147.339844 147.148438 Z M 147.339844 147.148438 " fill-opacity="1" fill-rule="nonzero"/><path fill="#ff8888" d="M 324.925781 212.265625 C 324.234375 213.511719 323.3125 214.550781 322.164062 215.390625 C 321.015625 216.226562 319.746094 216.785156 318.351562 217.066406 L 260.609375 228.265625 C 251.769531 229.558594 242.964844 229.339844 234.199219 227.613281 C 218.898438 224.605469 194.15625 214.304688 172.601562 210.101562 L 164.945312 259.453125 C 164.945312 259.453125 228.726562 266.636719 240.691406 266.644531 C 272.300781 266.644531 314.714844 247.953125 327.316406 242.035156 C 328.441406 241.511719 329.625 241.214844 330.867188 241.144531 C 332.109375 241.078125 333.316406 241.242188 334.496094 241.640625 C 340.796875 243.730469 353.207031 245.964844 350.84375 229.984375 C 349.5625 221.300781 344.472656 210.644531 337.335938 206.640625 C 331.363281 203.28125 327.234375 208.214844 324.925781 212.265625 Z M 324.925781 212.265625 " fill-opacity="1" fill-rule="nonzero"/><g clip-path="url(#12f7fad48c)"><path fill="#ff552e" d="M 190.445312 208.820312 C 165.785156 200.332031 139.074219 197.761719 136.464844 196.976562 C 118.855469 187.335938 101.25 187.335938 83.648438 196.976562 C 79.492188 198.242188 41.476562 211.371094 34.675781 228.121094 C 26.730469 247.65625 20.367188 296.667969 19.25 305.351562 C 19.234375 305.523438 19.246094 305.691406 19.289062 305.855469 C 19.335938 306.023438 19.410156 306.175781 19.511719 306.3125 C 19.613281 306.453125 19.738281 306.566406 19.882812 306.660156 C 20.027344 306.75 20.183594 306.8125 20.355469 306.84375 L 49.449219 312.007812 L 50.703125 329.21875 L 167.5 329.21875 C 167.671875 329.21875 167.839844 329.1875 168 329.125 C 168.160156 329.0625 168.304688 328.972656 168.429688 328.855469 C 168.558594 328.738281 168.660156 328.601562 168.734375 328.449219 C 168.8125 328.292969 168.855469 328.128906 168.871094 327.957031 L 172.539062 281.347656 C 172.589844 280.691406 172.710938 280.046875 172.898438 279.417969 C 173.085938 278.789062 173.335938 278.183594 173.648438 277.609375 C 173.964844 277.03125 174.335938 276.492188 174.765625 275.996094 C 175.191406 275.496094 175.667969 275.050781 176.191406 274.652344 C 176.714844 274.253906 177.273438 273.917969 177.867188 273.640625 C 178.460938 273.359375 179.078125 273.148438 179.71875 273 C 180.359375 272.851562 181.007812 272.773438 181.664062 272.761719 C 182.320312 272.75 182.972656 272.808594 183.617188 272.9375 C 201.101562 276.417969 225.398438 281.160156 225.398438 281.160156 L 236.917969 228.058594 C 222.480469 222.433594 212.066406 216.25 190.445312 208.820312 Z M 190.445312 208.820312 " fill-opacity="1" fill-rule="nonzero"/></g><path fill="#ffe3e6" d="M 110.058594 176.226562 C 91.566406 176.226562 76.664062 181.636719 76.785156 193.199219 C 76.785156 195.695312 78.730469 199.304688 81.082031 198.441406 C 87.046875 196.222656 97.792969 194.070312 110.058594 194.070312 C 122.328125 194.070312 133.074219 196.222656 139.039062 198.441406 C 141.382812 199.304688 143.300781 195.699219 143.328125 193.199219 C 143.484375 181.636719 128.582031 176.226562 110.058594 176.226562 Z M 110.058594 176.226562 " fill-opacity="1" fill-rule="nonzero"/><g clip-path="url(#a761fb2c6d)"><path fill="#e82d07" d="M 54.820312 329.210938 L 46.601562 329.210938 L 44.167969 297.433594 L 41.058594 256.71875 C 41.039062 256.449219 41.046875 256.179688 41.078125 255.910156 C 41.109375 255.640625 41.167969 255.378906 41.253906 255.121094 C 41.335938 254.863281 41.445312 254.617188 41.578125 254.382812 C 41.710938 254.144531 41.867188 253.925781 42.042969 253.71875 C 42.21875 253.515625 42.414062 253.328125 42.625 253.160156 C 42.839844 252.996094 43.066406 252.851562 43.304688 252.726562 C 43.546875 252.605469 43.796875 252.507812 44.058594 252.433594 C 44.320312 252.363281 44.585938 252.316406 44.855469 252.292969 C 45.125 252.273438 45.394531 252.277344 45.660156 252.3125 C 45.929688 252.34375 46.191406 252.402344 46.449219 252.484375 C 46.707031 252.570312 46.953125 252.679688 47.191406 252.8125 C 47.425781 252.945312 47.644531 253.097656 47.851562 253.273438 C 48.054688 253.449219 48.242188 253.644531 48.410156 253.859375 C 48.578125 254.070312 48.722656 254.296875 48.84375 254.539062 C 48.96875 254.78125 49.066406 255.03125 49.136719 255.292969 C 49.210938 255.554688 49.257812 255.816406 49.277344 256.089844 L 52.386719 297.144531 L 54.8125 328.902344 C 54.8125 329.003906 54.820312 329.144531 54.820312 329.210938 Z M 54.820312 329.210938 " fill-opacity="1" fill-rule="nonzero"/></g><path fill="#fc8535" d="M 283.460938 78.90625 L 282.089844 78.496094 C 281.601562 78.34375 281.152344 78.113281 280.746094 77.800781 C 280.339844 77.492188 280 77.117188 279.730469 76.683594 C 279.457031 76.25 279.269531 75.78125 279.167969 75.277344 C 279.0625 74.777344 279.050781 74.273438 279.128906 73.765625 L 281.84375 59.078125 C 281.886719 58.773438 281.964844 58.476562 282.074219 58.191406 C 282.183594 57.902344 282.324219 57.632812 282.492188 57.375 C 282.660156 57.117188 282.851562 56.878906 283.074219 56.664062 C 283.292969 56.449219 283.53125 56.261719 283.792969 56.097656 C 284.054688 55.9375 284.328125 55.804688 284.617188 55.699219 C 284.90625 55.597656 285.203125 55.527344 285.507812 55.488281 C 285.8125 55.449219 286.117188 55.441406 286.425781 55.46875 C 286.730469 55.496094 287.03125 55.558594 287.324219 55.648438 L 291.910156 57.019531 C 292.203125 57.109375 292.480469 57.226562 292.746094 57.375 C 293.011719 57.523438 293.257812 57.699219 293.488281 57.898438 C 293.714844 58.101562 293.917969 58.324219 294.097656 58.570312 C 294.277344 58.816406 294.429688 59.078125 294.554688 59.355469 C 294.679688 59.632812 294.769531 59.921875 294.832031 60.21875 C 294.894531 60.515625 294.925781 60.816406 294.921875 61.121094 C 294.917969 61.425781 294.882812 61.726562 294.816406 62.023438 C 294.75 62.320312 294.648438 62.605469 294.519531 62.882812 L 288.574219 76.589844 C 288.363281 77.0625 288.074219 77.480469 287.710938 77.847656 C 287.34375 78.214844 286.925781 78.503906 286.457031 78.714844 C 285.984375 78.929688 285.492188 79.050781 284.976562 79.085938 C 284.457031 79.117188 283.953125 79.058594 283.460938 78.90625 Z M 283.460938 78.90625 " fill-opacity="1" fill-rule="nonzero"/><path fill="#fc8535" d="M 256.554688 78.90625 L 257.925781 78.496094 C 258.414062 78.347656 258.863281 78.117188 259.269531 77.804688 C 259.675781 77.492188 260.015625 77.117188 260.285156 76.683594 C 260.558594 76.25 260.746094 75.78125 260.847656 75.277344 C 260.953125 74.777344 260.964844 74.273438 260.882812 73.765625 L 258.144531 59.0625 C 258.097656 58.761719 258.019531 58.46875 257.910156 58.183594 C 257.800781 57.898438 257.664062 57.628906 257.496094 57.375 C 257.328125 57.121094 257.136719 56.886719 256.917969 56.671875 C 256.703125 56.457031 256.464844 56.269531 256.207031 56.109375 C 255.949219 55.945312 255.675781 55.8125 255.390625 55.707031 C 255.105469 55.605469 254.808594 55.53125 254.507812 55.492188 C 254.207031 55.449219 253.902344 55.441406 253.597656 55.46875 C 253.296875 55.492188 252.996094 55.546875 252.707031 55.636719 L 248.117188 57.007812 C 247.824219 57.09375 247.546875 57.214844 247.28125 57.363281 C 247.015625 57.511719 246.769531 57.683594 246.542969 57.886719 C 246.3125 58.085938 246.109375 58.3125 245.929688 58.554688 C 245.75 58.800781 245.597656 59.0625 245.472656 59.339844 C 245.351562 59.617188 245.257812 59.90625 245.195312 60.203125 C 245.132812 60.503906 245.105469 60.804688 245.105469 61.109375 C 245.109375 61.414062 245.144531 61.710938 245.210938 62.007812 C 245.28125 62.304688 245.378906 62.59375 245.507812 62.867188 L 251.445312 76.578125 C 251.65625 77.046875 251.945312 77.464844 252.3125 77.832031 C 252.675781 78.199219 253.09375 78.488281 253.5625 78.703125 C 254.03125 78.917969 254.523438 79.042969 255.039062 79.078125 C 255.554688 79.113281 256.058594 79.054688 256.554688 78.90625 Z M 256.554688 78.90625 " fill-opacity="1" fill-rule="nonzero"/><path fill="#9b2a42" d="M 135.308594 61.050781 C 135.171875 60.929688 135.027344 60.824219 134.867188 60.734375 C 134.710938 60.644531 134.542969 60.574219 134.367188 60.523438 C 134.191406 60.472656 134.015625 60.441406 133.832031 60.429688 C 133.652344 60.417969 133.472656 60.429688 133.292969 60.460938 C 133.113281 60.492188 132.9375 60.542969 132.769531 60.613281 C 132.601562 60.683594 132.445312 60.769531 132.296875 60.878906 C 132.148438 60.984375 132.015625 61.105469 131.898438 61.242188 C 131.777344 61.378906 131.671875 61.527344 131.589844 61.6875 C 130.59375 63.609375 128.585938 66.171875 124.546875 68.296875 L 140.808594 69.550781 C 140.492188 66.300781 137.582031 63.09375 135.308594 61.050781 Z M 135.308594 61.050781 " fill-opacity="1" fill-rule="nonzero"/></svg>